<svg width="1440.0000000000002" height="599.9999999999999" xmlns="http://www.w3.org/2000/svg" style="vector-effect: non-scaling-stroke;" stroke="null">
 <g stroke="null">
  <title stroke="null">Layer 1</title>
  <path stroke="null" transform="rotate(180 720 511.107)" id="svg_1" d="m0,550.21449l120,16c120,16 360,48 600,26.7c240,-21.7 480,-95.7 600,-133.4l120,-37.3l0,0l-120,0c-120,0 -360,0 -600,0c-240,0 -480,0 -600,0l-120,0l0,128z" fill="#bae3df"/>
 </g>

 <g stroke="null">
  <title stroke="null">Layer 2</title>
  <path stroke="null" fill="#bae3df" d="m0,215.49475l60,-37.3c60,-37.7 180,-111.7 300,-144c120,-31.7 240,-21.7 360,16c120,37.3 240,101.3 360,106.6c120,5.7 240,-48.3 300,-74.6l60,-26.7l0,-128l-60,0c-60,0 -180,0 -300,0c-120,0 -240,0 -360,0c-120,0 -240,0 -360,0c-120,0 -240,0 -300,0l-60,0l0,288z" id="svg_2"/>
 </g>
 <g stroke="null">
  <title stroke="null">Layer 3</title>
  <rect stroke="null" style="vector-effect: non-scaling-stroke;" id="svg_5" height="788.01189" width="1734.02617" y="-87.99682" x="-141.99128" fill="#f7ead3"/>
  <path stroke="null" style="vector-effect: non-scaling-stroke;" fill="#bae3df" d="m-303.10474,393.55702c1311.13141,-124.44637 908.90296,-155.55796 1386.68814,-168.8915c477.78518,-13.33354 504.45226,331.11624 504.45226,333.3385c0,2.22226 -753.345,184.4473 -773.34531,188.89181c-20.00031,4.44451 -833.34624,35.55611 -853.34655,31.11159c-20.00031,-4.44451 -300.00465,-388.89491 -295.56013,-388.89491c4.44451,0 -1280.01982,128.89088 31.11159,4.44451z" id="svg_8"/>
  <path transform="rotate(180 945.758 -5.72334)" stroke="null" fill="#bae3df" d="m362.02733,-65.03682c1176.32733,-68.46796 815.45403,-85.58495 1244.11569,-92.9208c428.66166,-7.33585 452.58696,182.17368 452.58696,183.39632c0,1.22264 -675.88978,101.4793 -693.83375,103.92458c-17.94398,2.44528 -747.66568,19.56228 -765.60966,17.11699c-17.94398,-2.44528 -269.15965,-213.96237 -265.17209,-213.96237c3.98755,0 -1148.41448,70.91324 27.91285,2.44528z" id="svg_4"/>
  <path stroke="null" style="vector-effect: non-scaling-stroke;" transform="rotate(-13.209 159.15 599.506)" fill="#f7ead3" d="m413.22226,564.73988c13.32137,41.57673 -102.3081,81.12533 -202.48478,111.04029c-99.64383,29.91496 -184.36772,50.1963 -240.31746,34.9853c-55.94974,-15.46452 -83.65819,-66.42136 -54.88403,-118.39228c28.77415,-51.7174 114.56376,-104.70238 228.06181,-109.01216c114.0309,-4.30978 256.3031,39.5486 269.62447,81.37884l-0.00001,0.00001z" id="svg_3"/>
  <path stroke="null" fill="#f7ead3" d="m675.57711,518.89228c80.00124,-57.77867 315.56044,-144.44668 548.89739,-68.88996c233.33695,75.55673 366.67234,111.11283 186.66956,240.00372c-180.00279,128.89088 -302.2269,173.33602 -528.89708,142.22442c-226.67018,-31.11159 -297.78239,-162.22473 -297.79352,-163.33126c0.01114,1.10652 -28.8782,-30.00507 -28.8782,-32.22733c0,-2.22226 40.00062,-60.00093 120.00186,-117.7796l-0.00001,0.00001z" id="svg_7"/>
 </g>
</svg>