<?xml version="1.0" encoding="iso-8859-1"?>
<!-- Generator: Adobe Illustrator 19.0.0, SVG Export Plug-In . SVG Version: 6.00 Build 0)  -->
<svg version="1.1" id="Capa_1" xmlns="http://www.w3.org/2000/svg" xmlns:xlink="http://www.w3.org/1999/xlink" x="0px" y="0px"
	 viewBox="0 0 379.04 379.04" style="enable-background:new 0 0 379.04 379.04;" xml:space="preserve">
<g>
	<g>
		<rect x="44" y="40.56" width="291.04" height="182"/>
	</g>
</g>
<g>
	<g>
		<path d="M376,16c0-8.837-7.163-16-16-16H19.04c-8.837,0-16,7.163-16,16v231.04c0.029,2.817,0.802,5.577,2.24,8
			c-1.438,2.423-2.211,5.183-2.24,8v100c0,8.837,7.163,16,16,16H360c8.837,0,16-7.163,16-16v-100c-0.029-2.817-0.802-5.577-2.24-8
			c1.438-2.423,2.211-5.183,2.24-8V16z M351.04,348c0,4.418-3.582,8-8,8H36c-4.418,0-8-3.582-8-8v-70c0-4.418,3.582-8,8-8h307.04
			c4.418,0,8,3.582,8,8V348z M351.04,230.56c0,4.418-3.582,8-8,8H36c-4.418,0-8-3.582-8-8v-198c0-4.418,3.582-8,8-8h307.04
			c4.418,0,8,3.582,8,8V230.56z"/>
	</g>
</g>
<g>
	<g>
		<path d="M44,286v54h291.04v-54H44z M147.68,331.84H63.04c-4.418,0-8-3.582-8-8s3.582-8,8-8h84.64c4.418,0,8,3.582,8,8
			S152.098,331.84,147.68,331.84z M147.68,309.52H63.04c-4.418,0-8-3.582-8-8s3.582-8,8-8h84.64c4.418,0,8,3.582,8,8
			S152.098,309.52,147.68,309.52z M316,331.84h-84.64c-4.418,0-8-3.582-8-8s3.582-8,8-8H316c4.418,0,8,3.582,8,8
			S320.418,331.84,316,331.84z M316,309.52h-84.64c-4.418,0-8-3.582-8-8s3.582-8,8-8H316c4.418,0,8,3.582,8,8
			S320.418,309.52,316,309.52z"/>
	</g>
</g>
<g>
</g>
<g>
</g>
<g>
</g>
<g>
</g>
<g>
</g>
<g>
</g>
<g>
</g>
<g>
</g>
<g>
</g>
<g>
</g>
<g>
</g>
<g>
</g>
<g>
</g>
<g>
</g>
<g>
</g>
</svg>
