<svg id="Capa_1" enable-background="new 0 0 512 512" height="512" viewBox="0 0 512 512" width="512" xmlns="http://www.w3.org/2000/svg"><g><circle cx="194.75" cy="10" r="10"/><path d="m379.75 249.314v-159.314c0-2.652-1.054-5.195-2.929-7.071l-80-80c-1.876-1.875-4.419-2.929-7.071-2.929h-49.35c-5.523 0-10 4.477-10 10s4.477 10 10 10h39.35v60c0 11.028 8.972 20 20 20h60v149.464c-67.381 5.607-120.5 62.231-120.5 131.036 0 46.954 24.742 88.231 61.867 111.5h-271.367v-472h119.99c5.522 0 10-4.477 10-10s-4.478-10-10-10h-119.99c-11.028 0-20 8.972-20 20v472c0 11.028 8.972 20 20 20h341c72.51 0 131.5-58.99 131.5-131.5 0-69.484-54.173-126.544-122.5-131.186zm-80-215.171 45.857 45.857h-45.857zm71 457.857c-61.481 0-111.5-50.019-111.5-111.5s50.019-111.5 111.5-111.5 111.5 50.019 111.5 111.5-50.019 111.5-111.5 111.5z"/><path d="m397.665 355.957c16.542 0 30-13.458 30-30s-13.458-30-30-30-30 13.458-30 30c0 2.203.246 4.349.699 6.418l-39.797 24.716c-5.137-4.119-11.649-6.592-18.731-6.592-16.542 0-30 13.458-30 30s13.458 30 30 30c7.082 0 13.595-2.472 18.732-6.592l16.707 10.375c7.697 4.781 15.393 9.56 23.09 14.338-.453 2.07-.699 4.217-.699 6.422 0 16.542 13.458 30 30 30s30-13.458 30-30-13.458-30-30-30c-7.084 0-13.598 2.474-18.736 6.595-7.701-4.78-15.4-9.562-23.102-14.344l-16.693-10.367c.454-2.072.701-4.221.701-6.427 0-2.207-.247-4.356-.701-6.429l39.791-24.712c5.138 4.124 11.653 6.599 18.739 6.599zm10 79.086c0 5.514-4.486 10-10 10s-10-4.486-10-10 4.486-10 10-10 10 4.486 10 10zm-10-119.086c5.514 0 10 4.486 10 10s-4.486 10-10 10-10-4.486-10-10 4.486-10 10-10zm-97.83 64.543c0-5.514 4.486-10 10-10s10 4.486 10 10-4.486 10-10 10-10-4.486-10-10z"/><path d="m73.633 305.941c-5.522 0-10 4.478-10 10v129.117c0 5.522 4.478 10 10 10h129.117c5.523 0 10-4.478 10-10v-129.117c0-5.522-4.477-10-10-10zm119.117 129.118h-109.117v-109.118h109.117z"/><path d="m314.75 130h-240c-5.522 0-10 4.477-10 10s4.478 10 10 10h240c5.523 0 10-4.477 10-10s-4.477-10-10-10z"/><path d="m324.75 195.416c0-5.522-4.477-10-10-10h-240c-5.522 0-10 4.478-10 10 0 5.523 4.478 10 10 10h240c5.523 0 10-4.477 10-10z"/><path d="m242.83 250.832c0-5.522-4.478-10-10-10h-158.08c-5.522 0-10 4.478-10 10s4.478 10 10 10h158.08c5.523 0 10-4.478 10-10z"/><path d="m232.83 80h-158.08c-5.522 0-10 4.478-10 10s4.478 10 10 10h158.08c5.522 0 10-4.478 10-10s-4.477-10-10-10z"/></g></svg>