<svg viewBox="0 -31 512.00003 512" xmlns="http://www.w3.org/2000/svg"><path d="m47.710938 243.710938h68.570312c5.523438 0 10-4.480469 10-10 0-5.523438-4.476562-10-10-10h-68.570312c-5.519532 0-9.996094 4.476562-9.996094 10 0 5.519531 4.476562 10 9.996094 10zm0 0"/><path d="m47.710938 195.710938h68.570312c5.523438 0 10-4.476563 10-10 0-5.519532-4.476562-10-10-10h-68.570312c-5.519532 0-9.996094 4.480468-9.996094 10 0 5.523437 4.476562 10 9.996094 10zm0 0"/><path d="m47.710938 147.710938h68.570312c5.523438 0 10-4.476563 10-10 0-5.519532-4.476562-9.996094-10-9.996094h-68.570312c-5.519532 0-9.996094 4.476562-9.996094 9.996094 0 5.523437 4.476562 10 9.996094 10zm0 0"/><path d="m81.996094 275.082031c-25.871094 0-46.921875 21.046875-46.921875 46.921875 0 25.871094 21.050781 46.921875 46.921875 46.921875 25.875 0 46.921875-21.050781 46.921875-46.921875 0-25.875-21.046875-46.921875-46.921875-46.921875zm0 73.84375c-14.84375 0-26.921875-12.078125-26.921875-26.921875 0-14.847656 12.078125-26.921875 26.921875-26.921875 14.847656 0 26.925781 12.074219 26.925781 26.921875 0 14.84375-12.078125 26.921875-26.925781 26.921875zm0 0"/><path d="m191.710938 243.710938h68.566406c5.523437 0 10-4.480469 10-10 0-5.523438-4.476563-10-10-10h-68.566406c-5.523438 0-10 4.476562-10 10 0 5.519531 4.476562 10 10 10zm0 0"/><path d="m191.710938 195.710938h68.566406c5.523437 0 10-4.476563 10-10 0-5.519532-4.476563-10-10-10h-68.566406c-5.523438 0-10 4.480468-10 10 0 5.523437 4.476562 10 10 10zm0 0"/><path d="m191.710938 147.710938h68.566406c5.523437 0 10-4.476563 10-10 0-5.519532-4.476563-9.996094-10-9.996094h-68.566406c-5.523438 0-10 4.476562-10 9.996094 0 5.523437 4.476562 10 10 10zm0 0"/><path d="m225.996094 275.082031c-25.875 0-46.921875 21.046875-46.921875 46.921875 0 25.871094 21.046875 46.921875 46.921875 46.921875 25.871094 0 46.921875-21.050781 46.921875-46.921875 0-25.875-21.050781-46.921875-46.921875-46.921875zm0 73.84375c-14.847656 0-26.925782-12.078125-26.925782-26.921875 0-14.847656 12.078126-26.921875 26.925782-26.921875 14.84375 0 26.921875 12.074219 26.921875 26.921875 0 14.84375-12.078125 26.921875-26.921875 26.921875zm0 0"/><path d="m462.347656 191.164062c-1.859375 1.859376-2.917968 4.429688-2.917968 7.070313 0 2.628906 1.058593 5.199219 2.917968 7.066406 1.871094 1.859375 4.441406 2.933594 7.082032 2.933594 2.628906 0 5.199218-1.070313 7.066406-2.933594 1.863281-1.867187 2.921875-4.4375 2.921875-7.066406 0-2.640625-1.058594-5.210937-2.921875-7.070313-1.867188-1.871093-4.4375-2.929687-7.066406-2.929687-2.640626 0-5.210938 1.058594-7.082032 2.929687zm0 0"/><path d="m511.660156 400.992188-25.796875-162.890626c-.863281-5.457031-5.984375-9.179687-11.441406-8.3125-5.453125.863282-9.175781 5.984376-8.3125 11.4375l25.800781 162.894532c.300782 1.914062-.160156 3.832031-1.296875 5.398437-1.140625 1.570313-2.824219 2.601563-4.738281 2.902344l-108.132812 17.128906c-3.960938.625-7.679688-2.082031-8.304688-6.03125l-59.867188-377.996093c-.304687-1.914063.15625-3.832032 1.296876-5.398438 1.140624-1.570312 2.820312-2.601562 4.734374-2.902344l108.132813-17.128906c3.957031-.625 7.679687 2.082031 8.304687 6.035156l20.386719 128.703125c.863281 5.453125 5.984375 9.179688 11.4375 8.3125 5.457031-.863281 9.175781-5.988281 8.316407-11.441406l-20.386719-128.703125c-1.136719-7.191406-5.011719-13.507812-10.898438-17.789062-5.890625-4.277344-13.09375-6.007813-20.289062-4.867188l-108.132813 17.125c-4.121094.652344-7.878906 2.203125-11.113281 4.421875-5-5.792969-12.390625-9.46875-20.625-9.46875h-109.480469c-6.542968 0-12.554687 2.320313-17.257812 6.179687-4.703125-3.859374-10.714844-6.179687-17.257813-6.179687h-109.480469c-15.03125 0-27.257812 12.230469-27.257812 27.257813v382.707031c0 15.027343 12.226562 27.257812 27.257812 27.257812h109.480469c6.542969 0 12.554688-2.320312 17.257813-6.179687 4.703125 3.859375 10.714844 6.179687 17.257812 6.179687h109.480469c15.027344 0 27.253906-12.230469 27.253906-27.257812v-258.980469l41.695313 263.238281c1.136718 7.191407 5.011718 13.511719 10.898437 17.789063 4.710938 3.421875 10.253907 5.210937 15.964844 5.210937 1.433594 0 2.878906-.113281 4.324219-.339843l108.132812-17.128907c14.84375-2.347656 25.007813-16.339843 22.65625-31.183593zm-374.921875 28.652343h-109.480469c-4.003906 0-7.257812-3.257812-7.257812-7.257812v-382.707031c0-4 3.253906-7.257813 7.257812-7.257813h109.480469c4 0 7.257813 3.257813 7.257813 7.257813v382.707031c0 4-3.253906 7.257812-7.257813 7.257812zm151.253907-7.257812c0 4-3.253907 7.257812-7.257813 7.257812h-109.480469c-4.003906 0-7.257812-3.257812-7.257812-7.257812v-382.707031c0-4 3.253906-7.257813 7.257812-7.257813h109.480469c4 0 7.257813 3.257813 7.257813 7.257813zm0 0"/><path d="m367.28125 242.832031c.519531 0 1.046875-.039062 1.578125-.125l67.726563-10.726562c5.453124-.863281 9.175781-5.984375 8.3125-11.441407-.863282-5.453124-5.988282-9.175781-11.441407-8.3125l-67.726562 10.726563c-5.453125.867187-9.175781 5.988281-8.3125 11.441406.78125 4.925781 5.03125 8.4375 9.863281 8.4375zm0 0"/><path d="m359.773438 195.425781c.519531 0 1.046874-.042969 1.578124-.125l67.726563-10.726562c5.453125-.867188 9.175781-5.988281 8.3125-11.441407-.863281-5.457031-5.988281-9.179687-11.441406-8.3125l-67.726563 10.726563c-5.453125.863281-9.175781 5.984375-8.3125 11.441406.78125 4.925781 5.03125 8.4375 9.863282 8.4375zm0 0"/><path d="m421.566406 137.164062c5.457032-.863281 9.175782-5.984374 8.316406-11.441406-.867187-5.453125-5.988281-9.175781-11.441406-8.3125l-67.726562 10.730469c-5.453125.863281-9.175782 5.984375-8.3125 11.4375.78125 4.925781 5.03125 8.4375 9.863281 8.4375.519531 0 1.046875-.039063 1.578125-.125zm0 0"/><path d="m414.945312 361.601562c2.425782 0 4.890626-.191406 7.363282-.582031 25.554687-4.050781 43.050781-28.132812 39.003906-53.6875-4.046875-25.554687-28.136719-43.050781-53.683594-39.003906-25.554687 4.046875-43.050781 28.132813-39.003906 53.6875 3.65625 23.078125 23.652344 39.585937 46.320312 39.585937zm-4.1875-73.519531c1.421876-.226562 2.832032-.335937 4.226563-.335937 13.003906 0 24.480469 9.472656 26.578125 22.714844 2.320312 14.664062-7.71875 28.480468-22.382812 30.804687-14.660157 2.320313-28.480469-7.71875-30.800782-22.378906-2.324218-14.664063 7.71875-28.480469 22.378906-30.804688zm0 0"/></svg>