<?xml version="1.0" encoding="iso-8859-1"?>
<!-- Generator: Adobe Illustrator 19.0.0, SVG Export Plug-In . SVG Version: 6.00 Build 0)  -->
<svg version="1.1" id="Layer_1" xmlns="http://www.w3.org/2000/svg" xmlns:xlink="http://www.w3.org/1999/xlink" x="0px" y="0px"
	 viewBox="0 0 504.004 504.004" style="enable-background:new 0 0 504.004 504.004;" xml:space="preserve">
<g>
	<g>
		<path d="M404.568,98.448H265.652l-42.28-42.22c-0.74-0.74-1.74-1.092-2.784-1.092H51.384C23.16,55.136,0,78.548,0,106.776V409.82
			c0,8.064,1.98,15.692,5.32,22.476c-2.232-7.404-2.636-15.484-1.164-23.84l39.572-224.592c5.224-29.64,33.636-53.916,63.332-53.916
			h344.592C443.724,110.264,425.292,98.448,404.568,98.448z"/>
	</g>
</g>
<g>
	<g>
		<path d="M496.904,156.672c-5.848-6.976-14.612-10.976-24.672-10.976H107.06c-22.028,0-43.924,18.82-47.82,40.904L19.664,411.108
			c-1.832,10.372,0.472,19.912,6.488,27.076c5.848,6.972,14.612,10.684,24.676,10.684h365.164c22.036,0,43.932-18.496,47.824-40.572
			l39.576-224.432C505.224,173.492,502.912,163.832,496.904,156.672z M224.404,255.94H94.472c-4.348,0-7.872-3.532-7.872-7.876
			c0-4.352,3.524-7.876,7.872-7.876h129.932c4.348,0,7.876,3.524,7.876,7.876C232.276,252.412,228.748,255.94,224.404,255.94z
			 M251.336,189.86l-4.236,23.796c-1.088,6.172-6.848,10.784-13.12,10.784H100.276c-3.232,0-6.212-1.112-8.172-3.46
			c-1.968-2.34-2.772-5.4-2.212-8.584l4.236-24.104c1.088-6.172,6.848-11.096,13.12-11.096h133.704c3.232,0,6.212,1.484,8.172,3.828
			C251.092,183.364,251.9,186.676,251.336,189.86z"/>
	</g>
</g>
<g>
</g>
<g>
</g>
<g>
</g>
<g>
</g>
<g>
</g>
<g>
</g>
<g>
</g>
<g>
</g>
<g>
</g>
<g>
</g>
<g>
</g>
<g>
</g>
<g>
</g>
<g>
</g>
<g>
</g>
</svg>
