<svg class="svg-icon" width="20" height="25"  viewBox="0 0 20 20">
    <path fill="" d="M16.803,18.615h-4.535c-1,0-1.814-0.812-1.814-1.812v-4.535c0-1.002,0.814-1.814,1.814-1.814h4.535c1.001,0,1.813,0.812,1.813,1.814v4.535C18.616,17.803,17.804,18.615,16.803,18.615zM17.71,12.268c0-0.502-0.405-0.906-0.907-0.906h-4.535c-0.501,0-0.906,0.404-0.906,0.906v4.535c0,0.502,0.405,0.906,0.906,0.906h4.535c0.502,0,0.907-0.404,0.907-0.906V12.268z M16.803,9.546h-4.535c-1,0-1.814-0.812-1.814-1.814V3.198c0-1.002,0.814-1.814,1.814-1.814h4.535c1.001,0,1.813,0.812,1.813,1.814v4.534C18.616,8.734,17.804,9.546,16.803,9.546zM17.71,3.198c0-0.501-0.405-0.907-0.907-0.907h-4.535c-0.501,0-0.906,0.406-0.906,0.907v4.534c0,0.501,0.405,0.908,0.906,0.908h4.535c0.502,0,0.907-0.406,0.907-0.908V3.198z M7.733,18.615H3.198c-1.002,0-1.814-0.812-1.814-1.812v-4.535c0-1.002,0.812-1.814,1.814-1.814h4.535c1.002,0,1.814,0.812,1.814,1.814v4.535C9.547,17.803,8.735,18.615,7.733,18.615zM8.64,12.268c0-0.502-0.406-0.906-0.907-0.906H3.198c-0.501,0-0.907,0.404-0.907,0.906v4.535c0,0.502,0.406,0.906,0.907,0.906h4.535c0.501,0,0.907-0.404,0.907-0.906V12.268z M7.733,9.546H3.198c-1.002,0-1.814-0.812-1.814-1.814V3.198c0-1.002,0.812-1.814,1.814-1.814h4.535c1.002,0,1.814,0.812,1.814,1.814v4.534C9.547,8.734,8.735,9.546,7.733,9.546z M8.64,3.198c0-0.501-0.406-0.907-0.907-0.907H3.198c-0.501,0-0.907,0.406-0.907,0.907v4.534c0,0.501,0.406,0.908,0.907,0.908h4.535c0.501,0,0.907-0.406,0.907-0.908V3.198z"></path>
</svg>