<svg id="File_management" height="512" viewBox="0 0 64 64" width="512" xmlns="http://www.w3.org/2000/svg" data-name="File management"><path d="m61 6h-11.87l-3.4-3.68a.99.99 0 0 0 -.73-.32h-30a1 1 0 0 0 -1 1v35h-5a7 7 0 0 0 0 14h5v5a1 1 0 0 0 1 1h9v3a1 1 0 0 0 1 1h36a1 1 0 0 0 1-1v-54a1 1 0 0 0 -1-1zm-47 44h-5a5 5 0 0 1 0-10h5zm32-44.44 8.72 9.44h-8.72zm-30 50.44v-4h13a9 9 0 0 0 0-18h-8v2h8a7 7 0 0 1 0 14h-13v-10h12a3 3 0 0 1 0 6h-10v2h10a5 5 0 0 0 0-10h-12v-34h28v12a1 1 0 0 0 1 1h11v39zm44 4h-34v-2h31a1 1 0 0 0 1-1v-41a.977.977 0 0 0 -.27-.68l-6.75-7.32h9.02z"/><path d="m19 12h6v2h-6z"/><path d="m27 12h14v2h-14z"/><path d="m19 16h22v2h-22z"/><path d="m19 20h35v2h-35z"/><path d="m19 24h35v2h-35z"/><path d="m19 28h35v2h-35z"/><path d="m37 32h5v2h-5z"/><path d="m44 32h10v2h-10z"/><path d="m19 8h2v2h-2z"/><path d="m23 8h18v2h-18z"/></svg>