<svg id="Capa_1" enable-background="new 0 0 512 512" height="512" viewBox="0 0 512 512" width="512" xmlns="http://www.w3.org/2000/svg"><g><g id="Page-1_15_"><g id="_x30_16---PDF-File"><path id="Shape_128_" d="m343.643 219.429-41.929-41.929v32.786c0 5.049 4.093 9.143 9.143 9.143z"/><path id="Shape_127_" d="m228.571 64v-18.286c0-5.049-4.093-9.143-9.143-9.143h-219.428v73.143h512v-18.285h-256c-15.148 0-27.429-12.281-27.429-27.429zm-91.428 18.286h-100.572c-5.049 0-9.143-4.093-9.143-9.143s4.094-9.143 9.143-9.143h100.571c5.049 0 9.143 4.093 9.143 9.143s-4.093 9.143-9.142 9.143zm70.464-6.464c2.377 2.296 3.33 5.695 2.493 8.892s-3.333 5.693-6.53 6.53-6.596-.116-8.891-2.493l-2.679-2.68-2.679 2.679c-3.587 3.465-9.29 3.415-12.817-.111-3.527-3.527-3.576-9.229-.111-12.817l2.679-2.679-2.679-2.679c-3.465-3.587-3.415-9.29.111-12.817 3.527-3.527 9.229-3.576 12.817-.111l2.679 2.679 2.679-2.679c3.587-3.465 9.29-3.415 12.817.111 3.527 3.527 3.576 9.229.111 12.817l-2.679 2.679z"/><path id="Shape_126_" d="m0 429.714c0 15.148 12.28 27.429 27.429 27.429h54.857v-283.429c0-15.148 12.28-27.429 27.429-27.429h182.857c2.425.001 4.75.964 6.464 2.679l73.143 73.143c1.715 1.714 2.678 4.039 2.679 6.464v100.571h27.429c15.148 0 27.429 12.28 27.429 27.429v100.571h54.857c15.148 0 27.429-12.28 27.429-27.429v-301.713h-512.002z"/><path id="Shape_125_" d="m484.571 0h-457.142c-11.582.048-21.886 7.366-25.747 18.286h217.746c15.148 0 27.429 12.28 27.429 27.429v18.285c0 5.049 4.093 9.143 9.143 9.143h256v-45.714c0-15.149-12.28-27.429-27.429-27.429zm-91.428 45.714c-5.049 0-9.143-4.093-9.143-9.143s4.093-9.143 9.143-9.143c5.049 0 9.143 4.093 9.143 9.143s-4.094 9.143-9.143 9.143zm36.571 0c-5.049 0-9.143-4.093-9.143-9.143s4.093-9.143 9.143-9.143c5.049 0 9.143 4.093 9.143 9.143s-4.093 9.143-9.143 9.143zm36.572 0c-5.049 0-9.143-4.093-9.143-9.143s4.093-9.143 9.143-9.143 9.143 4.093 9.143 9.143-4.094 9.143-9.143 9.143z"/><path id="Shape_124_" d="m274.286 384v54.857c10.099 0 18.286-8.187 18.286-18.286v-18.286c-.001-10.098-8.187-18.285-18.286-18.285z"/><path id="Shape_123_" d="m402.286 347.429h-237.715c-5.049 0-9.143 4.093-9.143 9.143v109.714c0 5.049 4.093 9.143 9.143 9.143h237.714c5.049 0 9.143-4.093 9.143-9.143v-109.715c.001-5.049-4.093-9.142-9.142-9.142zm-192 73.142h-9.143v27.429c0 5.049-4.093 9.143-9.143 9.143-5.049 0-9.143-4.093-9.143-9.143v-73.143c0-5.049 4.093-9.143 9.143-9.143h18.286c15.148 0 27.429 12.28 27.429 27.429-.001 15.148-12.281 27.428-27.429 27.428zm100.571 0c0 20.198-16.374 36.571-36.571 36.571h-9.143c-5.049 0-9.143-4.093-9.143-9.143v-73.143c0-5.049 4.093-9.143 9.143-9.143h9.143c20.198 0 36.571 16.374 36.571 36.571zm64-36.571h-27.429v18.286h18.286c5.049 0 9.143 4.093 9.143 9.143s-4.093 9.143-9.143 9.143h-18.286v27.428c0 5.049-4.093 9.143-9.143 9.143-5.049 0-9.143-4.093-9.143-9.143v-73.143c0-5.049 4.093-9.143 9.143-9.143h36.571c5.049 0 9.143 4.093 9.143 9.143.001 5.05-4.092 9.143-9.142 9.143z"/><path id="Shape_122_" d="m210.286 384h-9.143v18.286h9.143c5.049 0 9.143-4.093 9.143-9.143s-4.094-9.143-9.143-9.143z"/><path id="Shape_121_" d="m137.143 466.286v-109.715c0-15.148 12.28-27.429 27.429-27.429h192v-91.429h-45.714c-15.148 0-27.429-12.28-27.429-27.429v-45.714h-173.715c-5.049 0-9.143 4.093-9.143 9.143v329.143c0 5.049 4.093 9.143 9.143 9.143h237.714c5.049 0 9.143-4.093 9.143-9.143v-9.143h-192c-15.148.001-27.428-12.279-27.428-27.427z"/></g></g></g></svg>

