<svg width="15" height="15" xmlns="http://www.w3.org/2000/svg" version="1.1" xml:space="preserve">
 <g>
  <title>Layer 1</title>
  <path stroke="null"  d="m8.76937,7.50021l3.97204,-3.97176c0.14101,-0.14105 0.14101,-0.36929 0,-0.51029l-0.75911,-0.75939c-0.06764,-0.06756 -0.15936,-0.10558 -0.25515,-0.10558c-0.09579,0 -0.1875,0.03802 -0.25515,0.10558l-3.972,3.97209l-3.972,-3.97209c-0.0676,-0.06756 -0.15936,-0.10558 -0.25515,-0.10558c-0.09579,0 -0.18754,0.03802 -0.25511,0.10558l-0.75915,0.75939c-0.14105,0.14101 -0.14105,0.36925 0,0.51029l3.97204,3.9718l-3.97163,3.9713c-0.14097,0.14105 -0.14097,0.36929 0,0.51025l0.75915,0.75939c0.06756,0.06756 0.15936,0.10562 0.25515,0.10562c0.09575,0 0.1875,-0.03806 0.25515,-0.10562l3.97151,-3.97159l3.97159,3.97159c0.0676,0.06756 0.15936,0.10562 0.25511,0.10562c0.09583,0 0.18759,-0.03806 0.25515,-0.10562l0.75915,-0.75939c0.14097,-0.14097 0.14097,-0.3692 0,-0.51025l-3.97159,-3.97134z" id="svg_17"/>
  <g id="svg_2"/>
  <g id="svg_3"/>
  <g id="svg_4"/>
  <g id="svg_5"/>
  <g id="svg_6"/>
  <g id="svg_7"/>
  <g id="svg_8"/>
  <g id="svg_9"/>
  <g id="svg_10"/>
  <g id="svg_11"/>
  <g id="svg_12"/>
  <g id="svg_13"/>
  <g id="svg_14"/>
  <g id="svg_15"/>
  <g id="svg_16"/>
 </g>

</svg>